<svg width="372" height="92" viewBox="0 0 372 92" fill="none" xmlns="http://www.w3.org/2000/svg">
<g clip-path="url(#clip0_6395_20336)">
<path d="M83.6203 91.7584H65.2423L41.8771 56.7099L18.3792 91.7584H0L31.7674 45.0267L1.31315 0H19.8226M46.5742 27.7908L64.0606 0H82.3071L55.5753 40.7363L46.5742 27.7908Z" fill="#0E1B20"/>
<path d="M126.406 3.05176e-05H177.077V14.9655H142.159V37.0188H175.633V51.9843H142.159V76.7929H177.077V91.7572H126.406V3.05176e-05Z" fill="#0E1B20"/>
<path d="M243.756 25.5985V91.7584H228.266V3.05176e-05H244.28M244.28 3.05176e-05L288.125 65.7669V3.05176e-05H303.614V91.7584H287.731L243.756 25.5985" fill="#0E1B20"/>
<path d="M356.246 3.05176e-05H371.999V91.7584H356.246V3.05176e-05Z" fill="#0E1B20"/>
</g>
<defs>
<clipPath id="clip0_6395_20336">
<rect width="371.998" height="91.7584" fill="white"/>
</clipPath>
</defs>
</svg>
